#!OML:ASF I:\golf\golf\golf 2\Subject 1\2002-09-07\Subject1.ASF
:FULLY-SPECIFIED
:DEGREES
372
root -4.82093 18.2003 -4.57943 -163.922 -1.91145 -180.412
lowerback -9.46117 14.1883 15.445
upperback -11.1876 15.6601 3.27534
thorax -3.82867 5.88914 -3.14493
lowerneck -16.5579 -14.0662 -2.56339
upperneck 13.7153 -17.7282 -4.90975
head 6.60827 -9.13782 -2.98785
rclavicle 7.15625e-015 1.30403e-013
rhumerus 87.5794 27.6655 -61.5488
rradius 70.5772
rwrist -5.35743
rhand -33.3828 22.2427
rfingers 7.12502
rthumb -6.58381 -7.63497
lclavicle 7.15625e-015 1.30403e-013
lhumerus 61.5906 7.45871 47.8581
lradius 69.3401
lwrist 28.5711
lhand -21.6504 21.4462
lfingers 7.12502
lthumb -175.254 -128.627
rfemur 11.8544 -6.4794 19.7768
rtibia 15.5857
rfoot 22.2767 -35.2891
rtoes 24.8931
lfemur -26.2757 -13.4772 -19.3599
ltibia 25.1134
lfoot 28.5003 -44.9906
ltoes 47.7923
373
root -4.80826 18.2135 -4.55505 -163.86 -1.53398 -180.382
lowerback -9.29321 14.0595 15.3838
upperback -11.0657 15.5288 3.44099
thorax -3.8607 5.83809 -2.9973
lowerneck -16.7658 -13.8396 -2.27651
upperneck 13.7201 -17.4388 -5.14561
head 6.60159 -9.00671 -3.08153
rclavicle 4.69132e-014 -1.08139e-013
rhumerus 86.761 27.8694 -62.0416
rradius 70.1438
rwrist -5.27093
rhand -34.2783 21.0221
rfingers 7.12502
rthumb -7.44815 -8.82677
lclavicle 4.69132e-014 -1.08139e-013
lhumerus 61.5629 6.5969 48.1531
lradius 68.719
lwrist 29.1929
lhand -21.3411 21.2831
lfingers 7.12502
lthumb -174.955 -128.797
rfemur 11.6048 -6.48683 19.6957
rtibia 15.7613
rfoot 22.1091 -35.1946
rtoes 24.9036
lfemur -26.3942 -13.5048 -19.2919
ltibia 25.1259
lfoot 27.2941 -45.0141
ltoes 46.7661
374
root -4.79487 18.2227 -4.53244 -163.89 -1.16898 -180.359
lowerback -9.00057 13.8605 15.1429
upperback -11.0311 15.3322 3.73674
thorax -4.1406 5.73955 -2.68112
lowerneck -16.7587 -13.5937 -2.24896
upperneck 13.8579 -17.0938 -5.33682
head 6.63374 -8.86096 -3.11705
rclavicle -1.24837e-013 -1.36764e-013
rhumerus 85.7473 28.2146 -62.5364
rradius 69.7582
rwrist -5.30444
rhand -32.9428 22.1505
rfingers 7.12502
rthumb -6.15899 -7.73998
lclavicle -1.24837e-013 -1.36764e-013
lhumerus 61.2324 5.67615 48.4779
lradius 68.124
lwrist 29.6256
lhand -21.1754 21.1557
lfingers 7.12502
lthumb -174.795 -128.928
rfemur 11.4528 -6.43462 19.6126
rtibia 15.9529
rfoot 21.8953 -35.0469
rtoes 24.7518
lfemur -26.3941 -13.5905 -19.2445
ltibia 25.1392
lfoot 26.0401 -45.0065
ltoes 45.6793
375
root -4.78141 18.2307 -4.51192 -163.905 -0.752939 -180.35
lowerback -7.73131 14.0847 15.8949
upperback -11.6711 15.9374 2.96905
thorax -5.06202 5.86641 -4.02603
lowerneck -16.1635 -13.74 -2.09697
upperneck 14.2046 -17.4244 -5.05662
head 6.65428 -8.99668 -3.05893
rclavicle -1.43125e-014 -1.20861e-013
rhumerus 83.3396 27.4458 -64.1828
rradius 69.3238
rwrist -5.1682
rhand -32.9988 21.7953
rfingers 7.12502
rthumb -6.21306 -8.09363
lclavicle -1.43125e-014 -1.20861e-013
lhumerus 61.6012 3.21087 48.2024
lradius 67.4755
lwrist 29.8848
lhand -21.4291 21.1322
lfingers 7.12502
lthumb -175.04 -128.946
rfemur 11.2941 -6.43092 19.4698
rtibia 16.1234
rfoot 21.8419 -34.8441
rtoes 24.8986
lfemur -26.3905 -13.7216 -19.1955
ltibia 25.1465
lfoot 24.6549 -44.9247
ltoes 44.6599
376
root -4.76735 18.2437 -4.4914 -163.9 -0.275526 -180.382
lowerback -7.64296 13.9519 15.7821
upperback -11.4744 15.7924 3.11954
thorax -4.97979 5.83205 -3.84742
lowerneck -16.1972 -13.5166 -2.10924
upperneck 14.0539 -17.1302 -4.94233
head 6.62944 -8.8429 -2.98967
rclavicle -1.27222e-013 1.24042e-013
rhumerus 82.4742 27.4943 -64.6024
rradius 69.0331
rwrist -5.19393
rhand -32.9158 21.2598
rfingers 7.12502
rthumb -6.13291 -8.6314
lclavicle -1.27222e-013 1.24042e-013
lhumerus 61.5275 2.33682 48.3012
lradius 66.7442
lwrist 30.1463
lhand -21.6963 21.0164
lfingers 7.12502
lthumb -175.298 -129.056
rfemur 11.1008 -6.265 19.3164
rtibia 16.2906
rfoot 21.7384 -34.7885
rtoes 25.0048
lfemur -26.3964 -13.8192 -19.1882
ltibia 25.141
lfoot 22.9813 -44.9414
ltoes 43.1173
377
root -4.75232 18.2585 -4.46953 -163.919 0.203826 -180.409
lowerback -7.32842 10.1032 16.1696
upperback -10.9046 16.6424 3.89947
thorax -5.17344 8.69473 -3.73191
lowerneck -16.3281 -13.3465 -2.4114
upperneck 14.1333 -16.8881 -4.56033
head 6.74383 -8.70253 -2.83041
rclavicle 1.70955e-013 1.7175e-013
rhumerus 81.4973 27.4808 -64.9462
rradius 68.7305
rwrist -5.12195
rhand -32.7474 20.5931
rfingers 7.12502
rthumb -5.97034 -9.30278
lclavicle 1.70955e-013 1.7175e-013
lhumerus 61.4972 1.43288 48.6491
lradius 66.0465
lwrist 30.5156
lhand -21.2834 20.9416
lfingers 7.12502
lthumb -174.899 -129.14
rfemur 10.9143 -6.04838 19.2022
rtibia 16.4843
rfoot 21.9983 -34.4375
rtoes 23.6379
lfemur -26.3913 -13.8538 -19.1929
ltibia 25.1207
lfoot 21.9329 -44.6819
ltoes 41.8702
378
root -4.73932 18.2705 -4.44707 -163.963 0.697423 -180.4
lowerback -7.14735 10.0382 16.0512
upperback -10.698 16.4944 4.04813
thorax -5.11739 8.61483 -3.55556
lowerneck -16.5571 -13.1057 -2.4502
upperneck 14.1669 -16.5611 -4.42386
head 6.81422 -8.53126 -2.77194
rclavicle -2.46493e-014 -1.17681e-013
rhumerus 80.494 27.5 -65.2576
rradius 68.5229
rwrist -4.91613
rhand -32.8998 21.054
rfingers 7.12502
rthumb -6.11748 -8.83765
lclavicle -2.46493e-014 -1.17681e-013
lhumerus 61.4802 0.634341 49.2018
lradius 65.4923
lwrist 31.357
lhand -20.3714 21.2215
lfingers 7.12502
lthumb -174.019 -128.883
rfemur 10.7572 -5.98066 19.0717
rtibia 16.6791
rfoot 22.5078 -33.82
rtoes 21.8928
lfemur -26.3655 -13.8853 -19.1851
ltibia 25.0976
lfoot 21.4643 -44.077
ltoes 41.4977
379
root -4.72962 18.278 -4.42413 -164.078 1.26159 -180.384
lowerback -6.95688 9.96321 15.9679
upperback -10.4295 16.2948 4.18872
thorax -4.99 8.50351 -3.39915
lowerneck -16.8731 -12.8198 -2.11583
upperneck 14.0809 -16.1939 -4.62581
head 6.79852 -8.35399 -2.85698
rclavicle -7.39479e-014 -1.81292e-013
rhumerus 79.5851 27.5586 -65.6387
rradius 68.3276
rwrist -4.64665
rhand -32.9881 20.8416
rfingers 7.12502
rthumb -6.20272 -9.04758
lclavicle -7.39479e-014 -1.81292e-013
lhumerus 61.4546 -0.0665108 49.5847
lradius 65.0417
lwrist 32.7578
lhand -19.8666 21.7606
lfingers 7.12502
lthumb -173.531 -128.358
rfemur 10.666 -5.97921 18.8682
rtibia 16.8803
rfoot 22.3913 -33.2429
rtoes 20.2496
lfemur -26.2478 -14.0163 -19.1792
ltibia 25.0734
lfoot 20.4287 -43.5699
ltoes 40.9793
380
root -4.7209 18.2871 -4.40174 -164.116 1.78221 -180.337
lowerback -6.78456 9.9276 15.9851
upperback -10.2212 16.162 4.25774
thorax -4.87209 8.41991 -3.35611
lowerneck -17.14 -12.6529 -1.97845
upperneck 14.0357 -15.9818 -4.62094
head 6.82078 -8.24127 -2.86894
rclavicle 9.54166e-015 -1.68569e-013
rhumerus 78.7129 27.4877 -66.0603
rradius 67.9749
rwrist -4.50787
rhand -32.8493 20.5073
rfingers 7.12502
rthumb -6.06873 -9.38573
lclavicle 9.54166e-015 -1.68569e-013
lhumerus 61.417 -0.935371 49.7197
lradius 64.5322
lwrist 33.6846
lhand -19.8545 22.1248
lfingers 7.12502
lthumb -173.52 -127.994
rfemur 10.4825 -5.92664 18.7366
rtibia 17.0859
rfoot 21.2343 -33.1313
rtoes 18.8766
lfemur -26.2293 -14.1837 -19.106
ltibia 25.0606
lfoot 19.1646 -43.2152
ltoes 40.084
381
root -4.71066 18.2999 -4.3782 -164.041 2.22945 -180.374
lowerback -6.66775 9.88274 15.8919
upperback -10.1077 16.0444 4.27414
thorax -4.83795 8.34883 -3.31663
lowerneck -17.1409 -12.4582 -1.82275
upperneck 13.8571 -15.7556 -4.58061
head 6.75818 -8.11993 -2.84464
rclavicle 1.48691e-013 8.90555e-014
rhumerus 77.7633 27.3556 -66.4443
rradius 67.6121
rwrist -4.48357
rhand -32.7061 20.2698
rfingers 7.12502
rthumb -5.93047 -9.62716
lclavicle 1.48691e-013 8.90555e-014
lhumerus 61.2731 -1.93439 49.7626
lradius 64.0689
lwrist 34.1829
lhand -20.0039 22.3091
lfingers 7.12502
lthumb -173.664 -127.806
rfemur 10.1824 -5.92221 18.5687
rtibia 17.2574
rfoot 20.5702 -33.1397
rtoes 18.1305
lfemur -26.374 -14.2347 -19.1282
ltibia 25.0721
lfoot 18.4386 -42.8856
ltoes 39.0839
382
root -4.69909 18.3116 -4.35202 -164.006 2.66572 -180.457
lowerback -6.57564 9.77666 15.6973
upperback -9.96949 15.8348 4.32842
thorax -4.80598 8.23807 -3.19518
lowerneck -17.0486 -12.1029 -1.33478
upperneck 13.5556 -15.3434 -4.8555
head 6.59224 -7.92469 -2.92839
rclavicle 4.13472e-014 -1.145e-013
rhumerus 76.87 27.3329 -66.7675
rradius 67.3382
rwrist -4.37265
rhand -32.7761 19.814
rfingers 7.12502
rthumb -5.99804 -10.0811
lclavicle 4.13472e-014 -1.145e-013
lhumerus 61.0402 -2.92608 49.7784
lradius 63.5067
lwrist 34.1772
lhand -20.6087 22.2658
lfingers 7.12502
lthumb -174.248 -127.832
rfemur 9.94101 -6.05232 18.3353
rtibia 17.3958
rfoot 20.7421 -32.8948
rtoes 17.807
lfemur -26.4699 -14.2685 -19.2007
ltibia 25.0816
lfoot 17.3695 -42.7997
ltoes 37.3738
383
root -4.68704 18.3208 -4.32411 -164.009 3.08741 -180.424
lowerback -6.45053 9.66618 15.6051
upperback -9.81474 15.641 4.45048
thorax -4.77353 8.13689 -3.05737
lowerneck -17.058 -11.8337 -1.23981
upperneck 13.4805 -15.0026 -4.84472
head 6.57179 -7.75473 -2.9021
rclavicle 1.85267e-013 9.85972e-014
rhumerus 75.9901 27.3533 -66.9909
rradius 67.0916
rwrist -4.19059
rhand -32.9265 19.1352
rfingers 7.12502
rthumb -6.14324 -10.7557
lclavicle 1.85267e-013 9.85972e-014
lhumerus 60.769 -4.06628 49.8431
lradius 62.6947
lwrist 33.1503
lhand -21.866 21.8888
lfingers 7.12502
lthumb -175.462 -128.18
rfemur 9.73578 -6.1773 18.236
rtibia 17.5569
rfoot 20.4986 -32.9019
rtoes 18.4425
lfemur -26.5114 -14.3068 -19.1237
ltibia 25.0554
lfoot 16.4423 -42.616
ltoes 35.9824
384
root -4.67498 18.3301 -4.29543 -164.033 3.52849 -180.356
lowerback -6.1915 9.59265 15.5289
upperback -9.68771 15.5424 4.58174
thorax -4.83288 8.07774 -2.94097
lowerneck -17.1111 -11.6854 -1.404
upperneck 13.4693 -14.7763 -4.75094
head 6.60307 -7.64398 -2.83338
rclavicle -1.18476e-013 -4.45278e-014
rhumerus 75.0089 27.2814 -67.1115
rradius 66.8454
rwrist -4.18455
rhand -32.817 18.7031
rfingers 7.12502
rthumb -6.03755 -11.1909
lclavicle -1.18476e-013 -4.45278e-014
lhumerus 60.5773 -5.0674 50.5839
lradius 62.0462
lwrist 33.5634
lhand -21.6177 21.7536
lfingers 7.12502
lthumb -175.222 -128.32
rfemur 9.53462 -6.07347 18.23
rtibia 17.7394
rfoot 19.3885 -33.5293
rtoes 20.1555
lfemur -26.5284 -14.3448 -18.9977
ltibia 25.0166
lfoot 16.3162 -42.0264
ltoes 35.9246
